ply
format ascii 1.0
comment Exported by Aspose.3D 22.10
element vertex 12
property float x
property float y
property float z
property float nx
property float ny
property float nz
property float u
property float v
element face 7
property list uchar int vertex_index
end_header
1 0 -1 0.3333333333333333 -0.3333333508371036 -0.33333335083710597 0.34024375677108765 0.6629272699356079
1 1.1350818872451782 -1 0.3333332935277724 0.3333332959613481 -0.33333335083710597 0.21861649552981058 0.7233681877454121
1.0000001192092896 1.1350818872451782 1 0.3333332935277724 0.33333328522661293 0.33333331582956066 0.21935290098190308 0.2829693406820297
1.0000001192092896 0 1 0.3333333333333333 -0.3333333615718388 0.33333331582956066 0.3402438163757324 0.343414843082428
-1 0 1 -0.3333333333333333 -0.3333333615718388 0.33333335083710597 0.6597562432289124 0.34341490268707275
-1 1.1350818872451782 1 -0.3333332935277724 0.33333328522661293 0.33333335083710597 0.7813835144042969 0.282973974943161
-1.0000001192092896 1.1350818872451782 -1 -0.3333332935277724 0.3333332959613481 -0.33333331582956066 0.7806471387545267 0.7233728369077046
-1.0000001192092896 0 -1 -0.3333333333333333 -0.3333333508371036 -0.33333331582956066 0.6597562432289124 0.6629273891448975
-0.0017367145046591759 1.1350818872451782 1.0000001192092896 5.970834138224745E-08 0.4999999278399194 0.5 0.7511611580848694 0.2521090805530548
-0.0017368788830935955 1.1350818872451782 -1.0000001192092896 5.970834138224745E-08 0.4999999439420222 -0.5 0.7500506639480591 0.7539189755916595
0.0017368784174323082 1.1350818872451782 1.0000001192092896 -5.970834138224745E-08 0.4999999278399194 0.5 0.24994935421273112 0.25242313742637634
0.0017367142718285322 1.1350818872451782 -1.0000001192092896 -5.970834138224745E-08 0.4999999439420222 -0.5 0.248838861763943 0.7542330324649811
4 0 1 2 3
4 6 7 4 5
4 6 5 8 9
4 11 10 2 1
4 4 7 0 3
6 7 6 9 11 1 0
6 5 4 3 2 10 8
