ply
format ascii 1.0
element vertex 106
property float x
property float y
property float z
element face 204
property list uchar int vertex_index
end_header
-0.194104 0.053635 0.194836
-0.155373 -0.062872 0.181983
-0.155373 -0.064487 0.181983
-0.155373 -0.064487 -0.186363
-0.155373 -0.062872 -0.186363
-0.194104 0.053635 -0.199216
0.225624 -0.059642 0.260696
0.225624 0.030325 0.268921
0.225624 -0.038312 0.260696
0.225624 -0.038312 -0.265076
0.225624 0.030324 -0.273302
0.225624 -0.059643 -0.265076
-0.202781 0.100258 -0.078703
-0.543771 0.066096 -0.106123
-0.571718 0.120922 -0.013132
-0.571718 0.120922 0.008752
-0.543771 0.066096 0.101743
-0.202781 0.100258 0.074323
-0.191722 0.158296 -0.031942
0.742150 -0.127155 -0.063808
0.792502 -0.086011 -0.078648
1.008485 -0.101781 -0.021493
0.742150 -0.127155 0.058910
1.008485 -0.101781 0.007489
0.792502 -0.085283 0.073750
0.323037 0.104002 -0.112313
0.268848 0.159998 -0.055154
0.464206 0.135998 -0.054342
0.323037 0.104002 0.107932
0.464206 0.135998 0.049444
0.268848 0.159998 0.050773
-0.191722 0.158296 0.027562
0.476575 0.033673 -0.120923
0.476575 0.034645 0.116025
0.748292 0.064833 0.024302
0.782120 -0.007671 0.069750
1.008485 -0.059185 0.006909
0.748292 0.064056 -0.029656
1.008485 -0.059185 -0.020913
0.782120 -0.019373 -0.075217
-0.269725 -0.135677 -0.125084
-0.522864 -0.069620 -0.104484
-0.208065 -0.078463 -0.159915
-0.223844 0.064369 -0.186754
-0.269725 -0.135677 0.120703
-0.208065 -0.078463 0.155535
-0.522864 -0.069620 0.100105
-0.223844 0.064370 0.182373
-0.979389 -0.057778 -0.019940
-0.979389 -0.057778 0.015561
-0.836759 -0.023144 0.295383
-0.755183 -0.025684 0.325532
-0.755183 0.001833 0.317304
-0.836759 0.011317 0.295383
-0.892526 -0.025601 0.048480
-0.892526 0.004435 0.048480
-0.583432 0.009688 0.114440
-0.583432 -0.040701 0.114979
-0.755183 0.001833 -0.321684
-0.755183 -0.025685 -0.329912
-0.836759 -0.023144 -0.299763
-0.836759 0.011317 -0.299763
-0.583432 0.009688 -0.118821
-0.892526 0.004435 -0.052860
-0.892526 -0.025601 -0.052860
-0.583432 -0.040701 -0.119359
-0.979389 0.047657 -0.036433
-0.979388 0.047657 0.032053
0.488708 -0.075078 0.117529
0.286326 -0.151761 0.117194
0.488708 -0.075078 -0.122427
0.323037 -0.151761 -0.121575
0.267161 -0.071864 -0.194200
0.267161 -0.071864 0.244750
0.006941 -0.067340 -1.054788
0.079675 -0.067340 -1.069146
0.002935 -0.091245 -1.056936
0.084847 -0.091245 -1.081039
0.084847 -0.091244 1.076659
0.079676 -0.067338 1.064765
0.002936 -0.091244 1.052556
0.006941 -0.067338 1.050408
0.161634 -0.033913 -0.667078
-0.118715 -0.033913 -0.558217
-0.118715 -0.033913 0.553837
0.161634 -0.033913 0.662697
-0.118715 0.022798 -0.552943
0.162481 0.022798 -0.662754
0.162481 0.022799 0.658373
-0.118715 0.022799 0.548563
0.278265 0.064369 -0.238915
0.278265 0.064370 0.234535
-1.076239 0.014085 -0.014903
-1.076239 -0.024207 -0.014903
-1.076239 -0.024207 0.010523
-1.076239 0.014085 0.010523
-0.674799 0.335544 0.008135
-0.674800 0.335544 -0.012515
-0.843782 0.368077 0.011174
-0.843783 0.368077 -0.015554
-0.893824 0.093908 -0.017997
-0.893824 0.093908 0.013617
0.578904 0.171684 0.013942
0.578904 0.171684 -0.018840
0.700825 0.115662 0.013362
0.700825 0.115662 -0.018261
3 27 29 102
3 27 102 103
3 104 102 29
3 104 29 34
3 27 103 105
3 27 105 37
3 103 102 104
3 103 104 105
3 34 37 105
3 34 105 104
3 0 1 2
3 3 4 5
3 6 7 8
3 9 10 11
3 12 13 14
3 15 16 17
3 12 14 18
3 19 20 21
3 22 23 24
3 25 26 27
3 28 29 30
3 17 31 15
3 25 27 32
3 28 33 29
3 34 35 36
3 37 38 39
3 40 41 42
3 12 43 13
3 44 45 46
3 17 16 47
3 40 48 41
3 44 46 49
3 48 40 44
3 48 44 49
3 16 46 47
3 46 45 47
3 43 42 41
3 43 41 13
3 29 33 34
3 33 35 34
3 27 37 32
3 37 39 32
3 50 51 52
3 50 52 53
3 54 50 55
3 50 53 55
3 55 53 52
3 55 52 56
3 56 52 57
3 52 51 57
3 57 51 54
3 51 50 54
3 58 59 60
3 58 60 61
3 62 58 63
3 58 61 63
3 63 61 60
3 63 60 64
3 64 60 59
3 64 59 65
3 65 59 58
3 65 58 62
3 13 62 63
3 13 63 66
3 66 63 48
3 63 64 48
3 48 64 41
3 64 65 41
3 41 65 62
3 41 62 13
3 49 54 55
3 49 55 67
3 67 55 16
3 55 56 16
3 16 56 46
3 56 57 46
3 46 57 54
3 46 54 49
3 27 26 29
3 26 30 29
3 23 36 24
3 36 35 24
3 21 20 38
3 20 39 38
3 33 68 35
3 68 24 35
3 22 24 68
3 22 68 69
3 69 68 28
3 68 33 28
3 20 70 39
3 70 32 39
3 25 32 70
3 25 70 71
3 71 70 19
3 70 20 19
3 38 37 36
3 37 34 36
3 14 15 31
3 14 31 18
3 18 31 30
3 18 30 26
3 25 12 26
3 12 18 26
3 17 28 30
3 17 30 31
3 40 71 69
3 40 69 44
3 71 40 42
3 71 42 72
3 69 73 45
3 69 45 44
3 74 75 76
3 75 77 76
3 78 79 80
3 79 81 80
3 77 82 76
3 82 83 76
3 84 85 80
3 85 78 80
3 74 86 87
3 74 87 75
3 88 89 81
3 88 81 79
3 76 83 74
3 83 86 74
3 89 84 81
3 84 80 81
3 75 87 82
3 75 82 77
3 85 88 79
3 85 79 78
3 87 10 82
3 10 11 82
3 6 7 85
3 7 88 85
3 83 4 5
3 83 5 86
3 0 1 84
3 0 84 89
3 86 5 10
3 86 10 87
3 7 0 89
3 7 89 88
3 82 11 83
3 11 4 83
3 1 6 84
3 6 85 84
3 4 11 72
3 4 72 42
3 73 6 1
3 73 1 45
3 5 4 43
3 4 42 43
3 45 1 47
3 1 0 47
3 10 5 43
3 10 43 90
3 47 0 7
3 47 7 91
3 11 10 72
3 10 90 72
3 91 7 73
3 7 6 73
3 90 43 12
3 90 12 25
3 17 47 91
3 17 91 28
3 72 90 25
3 72 25 71
3 28 91 73
3 28 73 69
3 92 93 94
3 92 94 95
3 48 49 94
3 48 94 93
3 92 66 48
3 92 48 93
3 49 67 95
3 49 95 94
3 67 66 95
3 66 92 95
3 96 97 98
3 97 99 98
3 15 14 96
3 14 97 96
3 97 14 100
3 97 100 99
3 101 15 96
3 101 96 98
3 100 101 99
3 101 98 99
3 66 67 100
3 67 101 100
3 101 67 16
3 101 16 15
3 13 66 100
3 13 100 14
3 21 38 36
3 21 36 23
3 22 19 23
3 19 21 23
3 69 71 22
3 71 19 22
